<svg xmlns="http://www.w3.org/2000/svg" viewBox="0 0 470 118" width="940" height="236">
  <title>Lockup horizontal v2 (nombre de demostración: Alzavia)</title>
  <!-- Símbolo -->
  <g transform="translate(6,4) scale(0.92)">
    <ellipse cx="52" cy="106" rx="17" ry="4.5" fill="#D8E5E1"/>
    <path fill="#0B5D4E"
      d="M52,102 C52,102 20,68 20,50 A32,32 0 1 1 84,50 C84,68 52,102 52,102 Z"/>
    <path fill="#F2B349"
      d="M52,33 L69,54 L59,54 L59,67 L45,67 L45,54 L35,54 Z"/>
    <g stroke="#3E8E7E" stroke-width="5" stroke-linecap="round" fill="none">
      <path d="M76,17 A9,9 0 0 1 85,26"/>
      <path d="M76,10 A16,16 0 0 1 92,26"/>
      <path d="M76,3 A23,23 0 0 1 99,26"/>
    </g>
  </g>
  <!-- Wordmark: reemplazar por el nombre elegido -->
  <text x="130" y="66" font-family="Archivo, Inter, 'Helvetica Neue', Arial, sans-serif"
        font-size="40" font-weight="800" letter-spacing="1.5" fill="#101418">Alzavia</text>
  <text x="132" y="92" font-family="Archivo, Inter, 'Helvetica Neue', Arial, sans-serif"
        font-size="13" font-weight="600" letter-spacing="5" fill="#0B5D4E">MARKETING LOCAL · GMB</text>
</svg>
