<svg xmlns="http://www.w3.org/2000/svg" viewBox="0 0 124 118" width="620" height="590">
  <title>Símbolo v2 monocromo</title>
  <!-- Pin con flecha en espacio negativo -->
  <path fill="#101418" fill-rule="evenodd"
    d="M52,102 C52,102 20,68 20,50 A32,32 0 1 1 84,50 C84,68 52,102 52,102 Z
       M52,33 L35,54 L45,54 L45,67 L59,67 L59,54 L69,54 Z"/>
  <!-- Ondas de señal -->
  <g stroke="#101418" stroke-width="5" stroke-linecap="round" fill="none">
    <path d="M76,17 A9,9 0 0 1 85,26"/>
    <path d="M76,10 A16,16 0 0 1 92,26"/>
    <path d="M76,3 A23,23 0 0 1 99,26"/>
  </g>
</svg>
